<svg xmlns="http://www.w3.org/2000/svg" version="1.1" xmlns:xlink="http://www.w3.org/1999/xlink" xmlns:svgjs="http://svgjs.dev/svgjs" width="1440" height="560" preserveAspectRatio="none" viewBox="0 0 1440 560"><g mask="url(&quot;#SvgjsMask1000&quot;)" fill="none"><rect width="1440" height="560" x="0" y="0" fill="#0e2a47"></rect><path d="M0,530.86C96.504,511.718,140.883,401.141,222.332,345.955C300.92,292.708,411.911,290.305,468.035,213.745C527.818,132.194,563.983,19.439,532.018,-76.493C500.396,-171.393,385.339,-203.475,307.911,-266.806C245.519,-317.838,195.408,-381.241,121.14,-412.565C40.502,-446.576,-46.105,-463.67,-132.937,-452.743C-230.025,-440.525,-333.073,-417.959,-400.384,-346.934C-468.597,-274.957,-496.231,-170.266,-494.609,-71.114C-493.105,20.855,-425.949,93.522,-391.781,178.921C-355.413,269.819,-360.129,381.617,-287.297,447.043C-211.551,515.086,-99.874,550.671,0,530.86" fill="#0b2239"></path><path d="M1440 1019.0989999999999C1529.077 1016.27 1615.038 996.53 1694.075 955.3489999999999 1778.968 911.117 1857.112 854.518 1909.564 774.443 1967.6 685.842 2012.33 584.317 2006.382 478.567 2000.194 368.553 1948.777 264.94 1876.241 181.995 1803.901 99.274 1709.0140000000001 29.998000000000047 1600.269 14.173000000000002 1496.72-0.8959999999999582 1406.032 73.16899999999998 1304.58 98.803 1197.789 125.786 1059.568 84.62 988.48 168.75599999999997 917.259 253.04899999999998 986.306 383.288 971.7850000000001 492.681 957.488 600.384 861.572 704.76 904.054 804.758 946.437 904.523 1074.693 931.572 1175.338 971.823 1260.268 1005.789 1348.576 1022.002 1440 1019.0989999999999" fill="#113255"></path></g><defs><mask id="SvgjsMask1000"><rect width="1440" height="560" fill="#ffffff"></rect></mask></defs></svg>